<?xml version="1.0" encoding="utf-8"?>
<svg viewBox="0 0 301.342 356.62" overflow="visible" xmlns="http://www.w3.org/2000/svg">
  <path d="M 165.103 213.635 L 175.043 226.26 L 177.628 229.836 C 187.569 249.321 185.581 273.183 177.628 289.486 C 174.247 295.848 170.072 301.02 165.101 305.394 L 165.101 305.39 C 162.316 308.176 159.136 310.359 155.557 312.149 L 151.332 314.441 C 151.331 314.456 149.099 315.425 149.095 315.442 C 148.695 315.575 150.719 314.676 150.649 314.741 C 150.644 314.744 150.603 314.759 150.599 314.763 C 150.338 314.847 149.782 315.141 149.682 315.207 C 149.664 315.218 150.687 314.606 149.994 315.019 C 149.375 315.229 150.6 314.86 148.281 315.765 C 144.361 317.295 145.837 316.689 145.837 316.689 C 143.902 317.581 140.86 318.305 136.237 319.194 C 131.377 320.115 125.138 320.165 119.73 320.165 L 120.564 313.741 C 121.757 313.741 122.95 313.741 123.945 313.741 C 126.657 313.741 129.269 313.643 131.809 313.375 C 131.682 313.397 132.715 313.267 132.771 313.259 C 134.411 313.039 132.851 313.241 133.908 313.11 C 135.39 312.906 136.593 312.668 138.062 312.349 L 138.064 312.35 C 138.892 312.131 138.587 312.326 138.75 312.258 C 138.757 312.257 138.493 312.369 138.458 312.265 C 147.746 309.789 152.615 307.437 156.785 303.424 C 156.502 303.401 156.755 303.635 157.386 302.836 C 159.175 301.046 163.91 295.451 165.103 293.262 C 172.657 281.932 175.242 267.017 169.672 254.097 L 169.078 252.506 L 154.753 230.679 L 154.764 230.629 L 140.05 213.331 C 136.073 230.629 132.494 247.928 128.518 264.83 C 128.914 268.209 128.715 271.39 130.705 273.977 L 120.564 273.977 L 120.564 217.906 L 124.74 195.438 L 120.564 190.465 L 120.564 157.063 C 121.956 158.852 123.348 160.64 124.74 162.233 L 130.108 168.794 L 131.699 160.642 L 120.564 107.357 L 120.564 38.161 L 126.927 38.161 C 130.307 51.479 133.091 64.805 136.073 77.928 C 145.619 75.343 155.559 74.352 165.105 75.144 C 173.653 75.941 181.805 77.928 189.16 81.109 C 190.552 81.705 191.745 82.3 192.936 83.099 L 221.769 38.161 L 240.063 38.161 C 226.344 53.073 213.419 69.972 200.895 87.67 C 204.076 89.659 207.059 91.85 209.842 94.629 C 211.035 100.992 208.252 107.752 206.661 114.115 C 203.281 107.752 198.906 102.187 193.737 97.612 C 183.994 111.926 174.45 126.244 165.105 139.963 L 165.105 126.84 L 187.173 92.243 C 180.614 87.472 173.058 84.09 165.105 82.501 C 161.725 81.704 158.146 81.308 154.565 81.109 C 148.602 80.709 142.637 81.705 137.266 83.893 C 141.838 105.169 146.212 126.642 151.581 147.718 L 165.103 126.84 L 165.103 139.963 C 161.92 144.934 158.542 149.903 155.161 154.478 C 151.582 165.812 148.602 177.342 145.816 188.874 L 159.536 206.57 L 159.565 206.429 C 159.582 206.447 159.598 206.466 159.615 206.484 L 159.561 206.594 L 165.101 213.631 L 165.101 209.341 L 165.103 209.339 L 165.103 213.635 Z M 154.753 230.679 L 154.629 231.281 C 154.62 231.272 154.611 231.264 154.602 231.255 C 154.65 231.058 154.699 230.863 154.747 230.67 L 154.753 230.679 Z M 121.843 319.923 C 121.445 319.923 119.966 320.305 119.568 320.106 C 98.492 318.916 79.404 310.168 63.1 295.451 C 64.291 288.69 66.679 282.328 69.065 275.567 C 79.404 294.456 98.492 311.556 120.563 313.741 L 121.843 319.923 Z M 120.563 273.977 L 107.042 273.977 L 111.218 265.824 L 120.563 217.906 L 120.563 273.977 Z M 120.563 190.467 L 94.913 160.642 C 80.995 124.854 96.104 105.368 108.832 93.436 C 111.218 91.049 113.604 89.062 116.188 87.271 L 107.837 46.51 L 103.861 38.161 L 120.563 38.161 L 120.563 107.355 L 118.574 98.407 C 116.984 100.397 115.393 102.782 114.001 105.366 C 104.855 122.466 109.627 141.952 120.563 157.063 L 120.563 190.467 Z" style=""/>
</svg>